<?xml version="1.0" standalone="no"?>
<!DOCTYPE svg PUBLIC "-//W3C//DTD SVG 20010904//EN"
 "http://www.w3.org/TR/2001/REC-SVG-20010904/DTD/svg10.dtd">
<svg version="1.0" xmlns="http://www.w3.org/2000/svg"
 width="512.000000pt" height="512.000000pt" viewBox="0 0 512.000000 512.000000"
 preserveAspectRatio="xMidYMid meet">

<g transform="translate(0.000000,512.000000) scale(0.100000,-0.100000)"
fill="#000000" stroke="none">
<path d="M1870 4941 c-296 -63 -532 -251 -660 -524 -160 -340 -97 -765 153
-1033 98 -105 561 -516 605 -537 106 -50 236 49 218 167 -4 22 -14 51 -21 63
-8 12 -136 130 -283 262 -148 131 -283 256 -301 277 -18 22 -50 75 -72 119
-69 140 -86 286 -49 429 32 126 74 201 165 291 92 92 167 136 281 165 72 19
112 20 654 20 542 0 582 -1 654 -20 114 -29 189 -73 281 -165 84 -83 126 -153
159 -265 26 -84 31 -212 12 -300 -18 -88 -80 -217 -131 -278 -21 -23 -256
-238 -524 -476 -336 -300 -654 -571 -1032 -879 -302 -247 -576 -478 -615 -520
-250 -268 -314 -693 -155 -1033 132 -282 375 -470 681 -528 122 -23 1218 -23
1340 0 305 57 549 246 680 527 160 341 97 765 -155 1035 -38 41 -256 241 -485
445 -228 203 -415 373 -415 377 0 4 187 174 415 377 228 204 445 402 482 441
253 269 318 697 158 1039 -129 276 -365 462 -665 524 -82 17 -142 19 -690 18
-539 0 -609 -2 -685 -18z m1181 -2992 c244 -218 450 -403 458 -412 12 -16 -55
-17 -950 -17 l-964 0 30 30 c45 45 969 799 976 797 4 -1 206 -180 450 -398z
m625 -775 c10 -39 -3 -181 -22 -244 -33 -111 -75 -182 -159 -265 -92 -92 -167
-136 -281 -165 -72 -19 -112 -20 -654 -20 -544 0 -581 1 -655 20 -199 51 -360
200 -427 397 -30 85 -47 226 -34 277 l6 26 1110 0 1110 0 6 -26z"/>
</g>
</svg>
